{"accessors" : [{"bufferView" : 0, "byteOffset" : 0, "componentType" : 5125, "count" : 80880, "type" : "SCALAR", "max" : [67399], "min" : [0]}, {"bufferView" : 1, "byteOffset" : 0, "componentType" : 5126, "count" : 67400, "type" : "VEC3", "max" : [0.5889710187911987, 1.6565660238265991, 0.33936598896980286], "min" : [-0.5889710187911987, 0.008111000061035156, -0.3872950077056885], "name" : "POSITION"}, {"bufferView" : 1, "byteOffset" : 12, "componentType" : 5126, "count" : 67400, "type" : "VEC2", "max" : [0.9987660050392151, -0.00017899999511428177], "min" : [0.003275000024586916, -0.893913984298706], "name" : "TEXCOORD_0"}, {"bufferView" : 1, "byteOffset" : 20, "componentType" : 5126, "count" : 67400, "type" : "VEC3", "max" : [0.9999850988388062, 0.9991540312767029, 1.0000025033950806], "min" : [-0.9999850988388062, -1.000001311302185, -0.9998995065689087], "name" : "NORMAL"}], "asset" : {"generator" : "Aspose.3D 22.10", "version" : "2.0"}, "buffers" : [{"uri" : "data:application/octet-stream;base64,", "byteLength" : 2911688}], "bufferViews" : [{"buffer" : 0, "byteOffset" : 0, "byteLength" : 323520, "target" : 34963}, {"buffer" : 0, "byteOffset" : 323524, "byteLength" : 2588160, "byteStride" : 32, "target" : 34962}], "meshes" : [{"primitives" : [{"attributes" : {"POSITION" : 1, "TEXCOORD_0" : 2, "NORMAL" : 3}, "indices" : 0, "mode" : 4}], "name" : ""}], "nodes" : [{"mesh" : 0, "name" : "Retopology_hp_Plane.002"}], "scene" : 0, "scenes" : [{"nodes" : [0]}]}